<?xml version="1.0" encoding="UTF-8"?>
<svg xmlns="http://www.w3.org/2000/svg" viewBox="-4 -4 45 45" width="280" height="280" fill="#ffffff" xmlns:xlink="http://www.w3.org/1999/xlink" role="img" aria-label="QR code vers https://www.flowtherapymusic.com/"><rect x="-4" y="-4" width="45" height="45" fill="#ffffff"></rect><rect fill="#000000" width="1" height="1" id="template"></rect><use x="0" y="0" href="#template" xlink:href="#template"></use><use x="0" y="1" href="#template" xlink:href="#template"></use><use x="0" y="2" href="#template" xlink:href="#template"></use><use x="0" y="3" href="#template" xlink:href="#template"></use><use x="0" y="4" href="#template" xlink:href="#template"></use><use x="0" y="5" href="#template" xlink:href="#template"></use><use x="0" y="6" href="#template" xlink:href="#template"></use><use x="0" y="8" href="#template" xlink:href="#template"></use><use x="0" y="10" href="#template" xlink:href="#template"></use><use x="0" y="11" href="#template" xlink:href="#template"></use><use x="0" y="12" href="#template" xlink:href="#template"></use><use x="0" y="13" href="#template" xlink:href="#template"></use><use x="0" y="14" href="#template" xlink:href="#template"></use><use x="0" y="19" href="#template" xlink:href="#template"></use><use x="0" y="21" href="#template" xlink:href="#template"></use><use x="0" y="22" href="#template" xlink:href="#template"></use><use x="0" y="24" href="#template" xlink:href="#template"></use><use x="0" y="25" href="#template" xlink:href="#template"></use><use x="0" y="26" href="#template" xlink:href="#template"></use><use x="0" y="27" href="#template" xlink:href="#template"></use><use x="0" y="30" href="#template" xlink:href="#template"></use><use x="0" y="31" href="#template" xlink:href="#template"></use><use x="0" y="32" href="#template" xlink:href="#template"></use><use x="0" y="33" href="#template" xlink:href="#template"></use><use x="0" y="34" href="#template" xlink:href="#template"></use><use x="0" y="35" href="#template" xlink:href="#template"></use><use x="0" y="36" href="#template" xlink:href="#template"></use><use x="1" y="0" href="#template" xlink:href="#template"></use><use x="1" y="6" href="#template" xlink:href="#template"></use><use x="1" y="9" href="#template" xlink:href="#template"></use><use x="1" y="10" href="#template" xlink:href="#template"></use><use x="1" y="11" href="#template" xlink:href="#template"></use><use x="1" y="12" href="#template" xlink:href="#template"></use><use x="1" y="14" href="#template" xlink:href="#template"></use><use x="1" y="15" href="#template" xlink:href="#template"></use><use x="1" y="16" href="#template" xlink:href="#template"></use><use x="1" y="17" href="#template" xlink:href="#template"></use><use x="1" y="18" href="#template" xlink:href="#template"></use><use x="1" y="19" href="#template" xlink:href="#template"></use><use x="1" y="21" href="#template" xlink:href="#template"></use><use x="1" y="23" href="#template" xlink:href="#template"></use><use x="1" y="24" href="#template" xlink:href="#template"></use><use x="1" y="26" href="#template" xlink:href="#template"></use><use x="1" y="27" href="#template" xlink:href="#template"></use><use x="1" y="30" href="#template" xlink:href="#template"></use><use x="1" y="36" href="#template" xlink:href="#template"></use><use x="2" y="0" href="#template" xlink:href="#template"></use><use x="2" y="2" href="#template" xlink:href="#template"></use><use x="2" y="3" href="#template" xlink:href="#template"></use><use x="2" y="4" href="#template" xlink:href="#template"></use><use x="2" y="6" href="#template" xlink:href="#template"></use><use x="2" y="9" href="#template" xlink:href="#template"></use><use x="2" y="10" href="#template" xlink:href="#template"></use><use x="2" y="11" href="#template" xlink:href="#template"></use><use x="2" y="15" href="#template" xlink:href="#template"></use><use x="2" y="16" href="#template" xlink:href="#template"></use><use x="2" y="17" href="#template" xlink:href="#template"></use><use x="2" y="21" href="#template" xlink:href="#template"></use><use x="2" y="22" href="#template" xlink:href="#template"></use><use x="2" y="26" href="#template" xlink:href="#template"></use><use x="2" y="28" href="#template" xlink:href="#template"></use><use x="2" y="30" href="#template" xlink:href="#template"></use><use x="2" y="32" href="#template" xlink:href="#template"></use><use x="2" y="33" href="#template" xlink:href="#template"></use><use x="2" y="34" href="#template" xlink:href="#template"></use><use x="2" y="36" href="#template" xlink:href="#template"></use><use x="3" y="0" href="#template" xlink:href="#template"></use><use x="3" y="2" href="#template" xlink:href="#template"></use><use x="3" y="3" href="#template" xlink:href="#template"></use><use x="3" y="4" href="#template" xlink:href="#template"></use><use x="3" y="6" href="#template" xlink:href="#template"></use><use x="3" y="8" href="#template" xlink:href="#template"></use><use x="3" y="9" href="#template" xlink:href="#template"></use><use x="3" y="13" href="#template" xlink:href="#template"></use><use x="3" y="14" href="#template" xlink:href="#template"></use><use x="3" y="16" href="#template" xlink:href="#template"></use><use x="3" y="19" href="#template" xlink:href="#template"></use><use x="3" y="23" href="#template" xlink:href="#template"></use><use x="3" y="24" href="#template" xlink:href="#template"></use><use x="3" y="26" href="#template" xlink:href="#template"></use><use x="3" y="30" href="#template" xlink:href="#template"></use><use x="3" y="32" href="#template" xlink:href="#template"></use><use x="3" y="33" href="#template" xlink:href="#template"></use><use x="3" y="34" href="#template" xlink:href="#template"></use><use x="3" y="36" href="#template" xlink:href="#template"></use><use x="4" y="0" href="#template" xlink:href="#template"></use><use x="4" y="2" href="#template" xlink:href="#template"></use><use x="4" y="3" href="#template" xlink:href="#template"></use><use x="4" y="4" href="#template" xlink:href="#template"></use><use x="4" y="6" href="#template" xlink:href="#template"></use><use x="4" y="11" href="#template" xlink:href="#template"></use><use x="4" y="12" href="#template" xlink:href="#template"></use><use x="4" y="14" href="#template" xlink:href="#template"></use><use x="4" y="17" href="#template" xlink:href="#template"></use><use x="4" y="19" href="#template" xlink:href="#template"></use><use x="4" y="21" href="#template" xlink:href="#template"></use><use x="4" y="24" href="#template" xlink:href="#template"></use><use x="4" y="26" href="#template" xlink:href="#template"></use><use x="4" y="27" href="#template" xlink:href="#template"></use><use x="4" y="28" href="#template" xlink:href="#template"></use><use x="4" y="30" href="#template" xlink:href="#template"></use><use x="4" y="32" href="#template" xlink:href="#template"></use><use x="4" y="33" href="#template" xlink:href="#template"></use><use x="4" y="34" href="#template" xlink:href="#template"></use><use x="4" y="36" href="#template" xlink:href="#template"></use><use x="5" y="0" href="#template" xlink:href="#template"></use><use x="5" y="6" href="#template" xlink:href="#template"></use><use x="5" y="10" href="#template" xlink:href="#template"></use><use x="5" y="11" href="#template" xlink:href="#template"></use><use x="5" y="12" href="#template" xlink:href="#template"></use><use x="5" y="13" href="#template" xlink:href="#template"></use><use x="5" y="16" href="#template" xlink:href="#template"></use><use x="5" y="19" href="#template" xlink:href="#template"></use><use x="5" y="22" href="#template" xlink:href="#template"></use><use x="5" y="23" href="#template" xlink:href="#template"></use><use x="5" y="25" href="#template" xlink:href="#template"></use><use x="5" y="27" href="#template" xlink:href="#template"></use><use x="5" y="28" href="#template" xlink:href="#template"></use><use x="5" y="30" href="#template" xlink:href="#template"></use><use x="5" y="36" href="#template" xlink:href="#template"></use><use x="6" y="0" href="#template" xlink:href="#template"></use><use x="6" y="1" href="#template" xlink:href="#template"></use><use x="6" y="2" href="#template" xlink:href="#template"></use><use x="6" y="3" href="#template" xlink:href="#template"></use><use x="6" y="4" href="#template" xlink:href="#template"></use><use x="6" y="5" href="#template" xlink:href="#template"></use><use x="6" y="6" href="#template" xlink:href="#template"></use><use x="6" y="8" href="#template" xlink:href="#template"></use><use x="6" y="10" href="#template" xlink:href="#template"></use><use x="6" y="12" href="#template" xlink:href="#template"></use><use x="6" y="14" href="#template" xlink:href="#template"></use><use x="6" y="16" href="#template" xlink:href="#template"></use><use x="6" y="18" href="#template" xlink:href="#template"></use><use x="6" y="20" href="#template" xlink:href="#template"></use><use x="6" y="22" href="#template" xlink:href="#template"></use><use x="6" y="24" href="#template" xlink:href="#template"></use><use x="6" y="26" href="#template" xlink:href="#template"></use><use x="6" y="28" href="#template" xlink:href="#template"></use><use x="6" y="30" href="#template" xlink:href="#template"></use><use x="6" y="31" href="#template" xlink:href="#template"></use><use x="6" y="32" href="#template" xlink:href="#template"></use><use x="6" y="33" href="#template" xlink:href="#template"></use><use x="6" y="34" href="#template" xlink:href="#template"></use><use x="6" y="35" href="#template" xlink:href="#template"></use><use x="6" y="36" href="#template" xlink:href="#template"></use><use x="7" y="10" href="#template" xlink:href="#template"></use><use x="7" y="11" href="#template" xlink:href="#template"></use><use x="7" y="13" href="#template" xlink:href="#template"></use><use x="7" y="14" href="#template" xlink:href="#template"></use><use x="7" y="17" href="#template" xlink:href="#template"></use><use x="7" y="18" href="#template" xlink:href="#template"></use><use x="7" y="19" href="#template" xlink:href="#template"></use><use x="7" y="20" href="#template" xlink:href="#template"></use><use x="7" y="22" href="#template" xlink:href="#template"></use><use x="7" y="23" href="#template" xlink:href="#template"></use><use x="7" y="24" href="#template" xlink:href="#template"></use><use x="7" y="25" href="#template" xlink:href="#template"></use><use x="7" y="26" href="#template" xlink:href="#template"></use><use x="7" y="28" href="#template" xlink:href="#template"></use><use x="8" y="2" href="#template" xlink:href="#template"></use><use x="8" y="4" href="#template" xlink:href="#template"></use><use x="8" y="5" href="#template" xlink:href="#template"></use><use x="8" y="6" href="#template" xlink:href="#template"></use><use x="8" y="8" href="#template" xlink:href="#template"></use><use x="8" y="11" href="#template" xlink:href="#template"></use><use x="8" y="14" href="#template" xlink:href="#template"></use><use x="8" y="16" href="#template" xlink:href="#template"></use><use x="8" y="18" href="#template" xlink:href="#template"></use><use x="8" y="21" href="#template" xlink:href="#template"></use><use x="8" y="22" href="#template" xlink:href="#template"></use><use x="8" y="23" href="#template" xlink:href="#template"></use><use x="8" y="24" href="#template" xlink:href="#template"></use><use x="8" y="26" href="#template" xlink:href="#template"></use><use x="8" y="27" href="#template" xlink:href="#template"></use><use x="8" y="28" href="#template" xlink:href="#template"></use><use x="8" y="29" href="#template" xlink:href="#template"></use><use x="8" y="33" href="#template" xlink:href="#template"></use><use x="8" y="36" href="#template" xlink:href="#template"></use><use x="9" y="0" href="#template" xlink:href="#template"></use><use x="9" y="1" href="#template" xlink:href="#template"></use><use x="9" y="3" href="#template" xlink:href="#template"></use><use x="9" y="4" href="#template" xlink:href="#template"></use><use x="9" y="8" href="#template" xlink:href="#template"></use><use x="9" y="9" href="#template" xlink:href="#template"></use><use x="9" y="10" href="#template" xlink:href="#template"></use><use x="9" y="11" href="#template" xlink:href="#template"></use><use x="9" y="12" href="#template" xlink:href="#template"></use><use x="9" y="14" href="#template" xlink:href="#template"></use><use x="9" y="15" href="#template" xlink:href="#template"></use><use x="9" y="16" href="#template" xlink:href="#template"></use><use x="9" y="17" href="#template" xlink:href="#template"></use><use x="9" y="18" href="#template" xlink:href="#template"></use><use x="9" y="20" href="#template" xlink:href="#template"></use><use x="9" y="21" href="#template" xlink:href="#template"></use><use x="9" y="24" href="#template" xlink:href="#template"></use><use x="9" y="26" href="#template" xlink:href="#template"></use><use x="9" y="27" href="#template" xlink:href="#template"></use><use x="9" y="28" href="#template" xlink:href="#template"></use><use x="9" y="31" href="#template" xlink:href="#template"></use><use x="9" y="34" href="#template" xlink:href="#template"></use><use x="9" y="36" href="#template" xlink:href="#template"></use><use x="10" y="2" href="#template" xlink:href="#template"></use><use x="10" y="5" href="#template" xlink:href="#template"></use><use x="10" y="6" href="#template" xlink:href="#template"></use><use x="10" y="7" href="#template" xlink:href="#template"></use><use x="10" y="8" href="#template" xlink:href="#template"></use><use x="10" y="10" href="#template" xlink:href="#template"></use><use x="10" y="11" href="#template" xlink:href="#template"></use><use x="10" y="12" href="#template" xlink:href="#template"></use><use x="10" y="17" href="#template" xlink:href="#template"></use><use x="10" y="18" href="#template" xlink:href="#template"></use><use x="10" y="20" href="#template" xlink:href="#template"></use><use x="10" y="23" href="#template" xlink:href="#template"></use><use x="10" y="24" href="#template" xlink:href="#template"></use><use x="10" y="25" href="#template" xlink:href="#template"></use><use x="10" y="27" href="#template" xlink:href="#template"></use><use x="10" y="28" href="#template" xlink:href="#template"></use><use x="10" y="30" href="#template" xlink:href="#template"></use><use x="10" y="31" href="#template" xlink:href="#template"></use><use x="10" y="32" href="#template" xlink:href="#template"></use><use x="10" y="35" href="#template" xlink:href="#template"></use><use x="10" y="36" href="#template" xlink:href="#template"></use><use x="11" y="0" href="#template" xlink:href="#template"></use><use x="11" y="10" href="#template" xlink:href="#template"></use><use x="11" y="11" href="#template" xlink:href="#template"></use><use x="11" y="13" href="#template" xlink:href="#template"></use><use x="11" y="15" href="#template" xlink:href="#template"></use><use x="11" y="22" href="#template" xlink:href="#template"></use><use x="11" y="25" href="#template" xlink:href="#template"></use><use x="11" y="26" href="#template" xlink:href="#template"></use><use x="11" y="28" href="#template" xlink:href="#template"></use><use x="11" y="29" href="#template" xlink:href="#template"></use><use x="11" y="31" href="#template" xlink:href="#template"></use><use x="11" y="34" href="#template" xlink:href="#template"></use><use x="11" y="35" href="#template" xlink:href="#template"></use><use x="12" y="2" href="#template" xlink:href="#template"></use><use x="12" y="3" href="#template" xlink:href="#template"></use><use x="12" y="4" href="#template" xlink:href="#template"></use><use x="12" y="6" href="#template" xlink:href="#template"></use><use x="12" y="7" href="#template" xlink:href="#template"></use><use x="12" y="8" href="#template" xlink:href="#template"></use><use x="12" y="10" href="#template" xlink:href="#template"></use><use x="12" y="12" href="#template" xlink:href="#template"></use><use x="12" y="14" href="#template" xlink:href="#template"></use><use x="12" y="18" href="#template" xlink:href="#template"></use><use x="12" y="19" href="#template" xlink:href="#template"></use><use x="12" y="21" href="#template" xlink:href="#template"></use><use x="12" y="23" href="#template" xlink:href="#template"></use><use x="12" y="25" href="#template" xlink:href="#template"></use><use x="12" y="27" href="#template" xlink:href="#template"></use><use x="12" y="28" href="#template" xlink:href="#template"></use><use x="12" y="29" href="#template" xlink:href="#template"></use><use x="12" y="30" href="#template" xlink:href="#template"></use><use x="12" y="31" href="#template" xlink:href="#template"></use><use x="12" y="34" href="#template" xlink:href="#template"></use><use x="12" y="36" href="#template" xlink:href="#template"></use><use x="13" y="0" href="#template" xlink:href="#template"></use><use x="13" y="1" href="#template" xlink:href="#template"></use><use x="13" y="4" href="#template" xlink:href="#template"></use><use x="13" y="5" href="#template" xlink:href="#template"></use><use x="13" y="9" href="#template" xlink:href="#template"></use><use x="13" y="11" href="#template" xlink:href="#template"></use><use x="13" y="12" href="#template" xlink:href="#template"></use><use x="13" y="15" href="#template" xlink:href="#template"></use><use x="13" y="16" href="#template" xlink:href="#template"></use><use x="13" y="17" href="#template" xlink:href="#template"></use><use x="13" y="18" href="#template" xlink:href="#template"></use><use x="13" y="19" href="#template" xlink:href="#template"></use><use x="13" y="20" href="#template" xlink:href="#template"></use><use x="13" y="21" href="#template" xlink:href="#template"></use><use x="13" y="24" href="#template" xlink:href="#template"></use><use x="13" y="25" href="#template" xlink:href="#template"></use><use x="13" y="26" href="#template" xlink:href="#template"></use><use x="13" y="30" href="#template" xlink:href="#template"></use><use x="13" y="33" href="#template" xlink:href="#template"></use><use x="13" y="34" href="#template" xlink:href="#template"></use><use x="13" y="35" href="#template" xlink:href="#template"></use><use x="13" y="36" href="#template" xlink:href="#template"></use><use x="14" y="0" href="#template" xlink:href="#template"></use><use x="14" y="2" href="#template" xlink:href="#template"></use><use x="14" y="3" href="#template" xlink:href="#template"></use><use x="14" y="5" href="#template" xlink:href="#template"></use><use x="14" y="6" href="#template" xlink:href="#template"></use><use x="14" y="7" href="#template" xlink:href="#template"></use><use x="14" y="11" href="#template" xlink:href="#template"></use><use x="14" y="13" href="#template" xlink:href="#template"></use><use x="14" y="15" href="#template" xlink:href="#template"></use><use x="14" y="16" href="#template" xlink:href="#template"></use><use x="14" y="17" href="#template" xlink:href="#template"></use><use x="14" y="19" href="#template" xlink:href="#template"></use><use x="14" y="23" href="#template" xlink:href="#template"></use><use x="14" y="24" href="#template" xlink:href="#template"></use><use x="14" y="29" href="#template" xlink:href="#template"></use><use x="14" y="31" href="#template" xlink:href="#template"></use><use x="14" y="32" href="#template" xlink:href="#template"></use><use x="14" y="34" href="#template" xlink:href="#template"></use><use x="14" y="36" href="#template" xlink:href="#template"></use><use x="15" y="0" href="#template" xlink:href="#template"></use><use x="15" y="3" href="#template" xlink:href="#template"></use><use x="15" y="7" href="#template" xlink:href="#template"></use><use x="15" y="10" href="#template" xlink:href="#template"></use><use x="15" y="11" href="#template" xlink:href="#template"></use><use x="15" y="12" href="#template" xlink:href="#template"></use><use x="15" y="18" href="#template" xlink:href="#template"></use><use x="15" y="19" href="#template" xlink:href="#template"></use><use x="15" y="20" href="#template" xlink:href="#template"></use><use x="15" y="21" href="#template" xlink:href="#template"></use><use x="15" y="23" href="#template" xlink:href="#template"></use><use x="15" y="25" href="#template" xlink:href="#template"></use><use x="15" y="26" href="#template" xlink:href="#template"></use><use x="15" y="30" href="#template" xlink:href="#template"></use><use x="15" y="36" href="#template" xlink:href="#template"></use><use x="16" y="1" href="#template" xlink:href="#template"></use><use x="16" y="4" href="#template" xlink:href="#template"></use><use x="16" y="5" href="#template" xlink:href="#template"></use><use x="16" y="6" href="#template" xlink:href="#template"></use><use x="16" y="8" href="#template" xlink:href="#template"></use><use x="16" y="9" href="#template" xlink:href="#template"></use><use x="16" y="11" href="#template" xlink:href="#template"></use><use x="16" y="12" href="#template" xlink:href="#template"></use><use x="16" y="14" href="#template" xlink:href="#template"></use><use x="16" y="15" href="#template" xlink:href="#template"></use><use x="16" y="22" href="#template" xlink:href="#template"></use><use x="16" y="23" href="#template" xlink:href="#template"></use><use x="16" y="24" href="#template" xlink:href="#template"></use><use x="16" y="25" href="#template" xlink:href="#template"></use><use x="16" y="28" href="#template" xlink:href="#template"></use><use x="16" y="29" href="#template" xlink:href="#template"></use><use x="16" y="30" href="#template" xlink:href="#template"></use><use x="16" y="33" href="#template" xlink:href="#template"></use><use x="16" y="35" href="#template" xlink:href="#template"></use><use x="16" y="36" href="#template" xlink:href="#template"></use><use x="17" y="0" href="#template" xlink:href="#template"></use><use x="17" y="3" href="#template" xlink:href="#template"></use><use x="17" y="5" href="#template" xlink:href="#template"></use><use x="17" y="12" href="#template" xlink:href="#template"></use><use x="17" y="16" href="#template" xlink:href="#template"></use><use x="17" y="18" href="#template" xlink:href="#template"></use><use x="17" y="19" href="#template" xlink:href="#template"></use><use x="17" y="22" href="#template" xlink:href="#template"></use><use x="17" y="25" href="#template" xlink:href="#template"></use><use x="17" y="26" href="#template" xlink:href="#template"></use><use x="17" y="28" href="#template" xlink:href="#template"></use><use x="17" y="30" href="#template" xlink:href="#template"></use><use x="17" y="34" href="#template" xlink:href="#template"></use><use x="17" y="35" href="#template" xlink:href="#template"></use><use x="17" y="36" href="#template" xlink:href="#template"></use><use x="18" y="0" href="#template" xlink:href="#template"></use><use x="18" y="1" href="#template" xlink:href="#template"></use><use x="18" y="3" href="#template" xlink:href="#template"></use><use x="18" y="6" href="#template" xlink:href="#template"></use><use x="18" y="8" href="#template" xlink:href="#template"></use><use x="18" y="10" href="#template" xlink:href="#template"></use><use x="18" y="11" href="#template" xlink:href="#template"></use><use x="18" y="12" href="#template" xlink:href="#template"></use><use x="18" y="13" href="#template" xlink:href="#template"></use><use x="18" y="14" href="#template" xlink:href="#template"></use><use x="18" y="17" href="#template" xlink:href="#template"></use><use x="18" y="19" href="#template" xlink:href="#template"></use><use x="18" y="20" href="#template" xlink:href="#template"></use><use x="18" y="23" href="#template" xlink:href="#template"></use><use x="18" y="24" href="#template" xlink:href="#template"></use><use x="18" y="25" href="#template" xlink:href="#template"></use><use x="18" y="26" href="#template" xlink:href="#template"></use><use x="18" y="28" href="#template" xlink:href="#template"></use><use x="18" y="30" href="#template" xlink:href="#template"></use><use x="18" y="32" href="#template" xlink:href="#template"></use><use x="18" y="35" href="#template" xlink:href="#template"></use><use x="18" y="36" href="#template" xlink:href="#template"></use><use x="19" y="8" href="#template" xlink:href="#template"></use><use x="19" y="9" href="#template" xlink:href="#template"></use><use x="19" y="10" href="#template" xlink:href="#template"></use><use x="19" y="12" href="#template" xlink:href="#template"></use><use x="19" y="13" href="#template" xlink:href="#template"></use><use x="19" y="15" href="#template" xlink:href="#template"></use><use x="19" y="17" href="#template" xlink:href="#template"></use><use x="19" y="20" href="#template" xlink:href="#template"></use><use x="19" y="21" href="#template" xlink:href="#template"></use><use x="19" y="22" href="#template" xlink:href="#template"></use><use x="19" y="23" href="#template" xlink:href="#template"></use><use x="19" y="25" href="#template" xlink:href="#template"></use><use x="19" y="26" href="#template" xlink:href="#template"></use><use x="19" y="27" href="#template" xlink:href="#template"></use><use x="19" y="28" href="#template" xlink:href="#template"></use><use x="19" y="30" href="#template" xlink:href="#template"></use><use x="19" y="32" href="#template" xlink:href="#template"></use><use x="20" y="1" href="#template" xlink:href="#template"></use><use x="20" y="3" href="#template" xlink:href="#template"></use><use x="20" y="6" href="#template" xlink:href="#template"></use><use x="20" y="7" href="#template" xlink:href="#template"></use><use x="20" y="8" href="#template" xlink:href="#template"></use><use x="20" y="11" href="#template" xlink:href="#template"></use><use x="20" y="12" href="#template" xlink:href="#template"></use><use x="20" y="13" href="#template" xlink:href="#template"></use><use x="20" y="14" href="#template" xlink:href="#template"></use><use x="20" y="17" href="#template" xlink:href="#template"></use><use x="20" y="19" href="#template" xlink:href="#template"></use><use x="20" y="22" href="#template" xlink:href="#template"></use><use x="20" y="23" href="#template" xlink:href="#template"></use><use x="20" y="25" href="#template" xlink:href="#template"></use><use x="20" y="28" href="#template" xlink:href="#template"></use><use x="20" y="29" href="#template" xlink:href="#template"></use><use x="20" y="30" href="#template" xlink:href="#template"></use><use x="20" y="31" href="#template" xlink:href="#template"></use><use x="20" y="36" href="#template" xlink:href="#template"></use><use x="21" y="0" href="#template" xlink:href="#template"></use><use x="21" y="1" href="#template" xlink:href="#template"></use><use x="21" y="2" href="#template" xlink:href="#template"></use><use x="21" y="3" href="#template" xlink:href="#template"></use><use x="21" y="4" href="#template" xlink:href="#template"></use><use x="21" y="5" href="#template" xlink:href="#template"></use><use x="21" y="7" href="#template" xlink:href="#template"></use><use x="21" y="14" href="#template" xlink:href="#template"></use><use x="21" y="16" href="#template" xlink:href="#template"></use><use x="21" y="18" href="#template" xlink:href="#template"></use><use x="21" y="19" href="#template" xlink:href="#template"></use><use x="21" y="20" href="#template" xlink:href="#template"></use><use x="21" y="21" href="#template" xlink:href="#template"></use><use x="21" y="22" href="#template" xlink:href="#template"></use><use x="21" y="23" href="#template" xlink:href="#template"></use><use x="21" y="24" href="#template" xlink:href="#template"></use><use x="21" y="29" href="#template" xlink:href="#template"></use><use x="21" y="30" href="#template" xlink:href="#template"></use><use x="21" y="33" href="#template" xlink:href="#template"></use><use x="21" y="34" href="#template" xlink:href="#template"></use><use x="21" y="35" href="#template" xlink:href="#template"></use><use x="22" y="0" href="#template" xlink:href="#template"></use><use x="22" y="3" href="#template" xlink:href="#template"></use><use x="22" y="4" href="#template" xlink:href="#template"></use><use x="22" y="5" href="#template" xlink:href="#template"></use><use x="22" y="6" href="#template" xlink:href="#template"></use><use x="22" y="7" href="#template" xlink:href="#template"></use><use x="22" y="9" href="#template" xlink:href="#template"></use><use x="22" y="12" href="#template" xlink:href="#template"></use><use x="22" y="16" href="#template" xlink:href="#template"></use><use x="22" y="17" href="#template" xlink:href="#template"></use><use x="22" y="19" href="#template" xlink:href="#template"></use><use x="22" y="23" href="#template" xlink:href="#template"></use><use x="22" y="25" href="#template" xlink:href="#template"></use><use x="22" y="28" href="#template" xlink:href="#template"></use><use x="22" y="29" href="#template" xlink:href="#template"></use><use x="22" y="32" href="#template" xlink:href="#template"></use><use x="22" y="33" href="#template" xlink:href="#template"></use><use x="22" y="34" href="#template" xlink:href="#template"></use><use x="22" y="36" href="#template" xlink:href="#template"></use><use x="23" y="1" href="#template" xlink:href="#template"></use><use x="23" y="3" href="#template" xlink:href="#template"></use><use x="23" y="4" href="#template" xlink:href="#template"></use><use x="23" y="7" href="#template" xlink:href="#template"></use><use x="23" y="8" href="#template" xlink:href="#template"></use><use x="23" y="12" href="#template" xlink:href="#template"></use><use x="23" y="18" href="#template" xlink:href="#template"></use><use x="23" y="19" href="#template" xlink:href="#template"></use><use x="23" y="21" href="#template" xlink:href="#template"></use><use x="23" y="24" href="#template" xlink:href="#template"></use><use x="23" y="29" href="#template" xlink:href="#template"></use><use x="23" y="30" href="#template" xlink:href="#template"></use><use x="23" y="36" href="#template" xlink:href="#template"></use><use x="24" y="0" href="#template" xlink:href="#template"></use><use x="24" y="1" href="#template" xlink:href="#template"></use><use x="24" y="3" href="#template" xlink:href="#template"></use><use x="24" y="4" href="#template" xlink:href="#template"></use><use x="24" y="6" href="#template" xlink:href="#template"></use><use x="24" y="8" href="#template" xlink:href="#template"></use><use x="24" y="12" href="#template" xlink:href="#template"></use><use x="24" y="13" href="#template" xlink:href="#template"></use><use x="24" y="14" href="#template" xlink:href="#template"></use><use x="24" y="15" href="#template" xlink:href="#template"></use><use x="24" y="19" href="#template" xlink:href="#template"></use><use x="24" y="20" href="#template" xlink:href="#template"></use><use x="24" y="21" href="#template" xlink:href="#template"></use><use x="24" y="22" href="#template" xlink:href="#template"></use><use x="24" y="24" href="#template" xlink:href="#template"></use><use x="24" y="27" href="#template" xlink:href="#template"></use><use x="24" y="29" href="#template" xlink:href="#template"></use><use x="24" y="32" href="#template" xlink:href="#template"></use><use x="24" y="35" href="#template" xlink:href="#template"></use><use x="25" y="2" href="#template" xlink:href="#template"></use><use x="25" y="3" href="#template" xlink:href="#template"></use><use x="25" y="4" href="#template" xlink:href="#template"></use><use x="25" y="5" href="#template" xlink:href="#template"></use><use x="25" y="7" href="#template" xlink:href="#template"></use><use x="25" y="8" href="#template" xlink:href="#template"></use><use x="25" y="9" href="#template" xlink:href="#template"></use><use x="25" y="10" href="#template" xlink:href="#template"></use><use x="25" y="11" href="#template" xlink:href="#template"></use><use x="25" y="14" href="#template" xlink:href="#template"></use><use x="25" y="15" href="#template" xlink:href="#template"></use><use x="25" y="16" href="#template" xlink:href="#template"></use><use x="25" y="17" href="#template" xlink:href="#template"></use><use x="25" y="21" href="#template" xlink:href="#template"></use><use x="25" y="22" href="#template" xlink:href="#template"></use><use x="25" y="23" href="#template" xlink:href="#template"></use><use x="25" y="24" href="#template" xlink:href="#template"></use><use x="25" y="25" href="#template" xlink:href="#template"></use><use x="25" y="27" href="#template" xlink:href="#template"></use><use x="25" y="29" href="#template" xlink:href="#template"></use><use x="25" y="32" href="#template" xlink:href="#template"></use><use x="25" y="33" href="#template" xlink:href="#template"></use><use x="25" y="36" href="#template" xlink:href="#template"></use><use x="26" y="0" href="#template" xlink:href="#template"></use><use x="26" y="2" href="#template" xlink:href="#template"></use><use x="26" y="4" href="#template" xlink:href="#template"></use><use x="26" y="6" href="#template" xlink:href="#template"></use><use x="26" y="7" href="#template" xlink:href="#template"></use><use x="26" y="10" href="#template" xlink:href="#template"></use><use x="26" y="12" href="#template" xlink:href="#template"></use><use x="26" y="13" href="#template" xlink:href="#template"></use><use x="26" y="14" href="#template" xlink:href="#template"></use><use x="26" y="15" href="#template" xlink:href="#template"></use><use x="26" y="16" href="#template" xlink:href="#template"></use><use x="26" y="18" href="#template" xlink:href="#template"></use><use x="26" y="19" href="#template" xlink:href="#template"></use><use x="26" y="20" href="#template" xlink:href="#template"></use><use x="26" y="22" href="#template" xlink:href="#template"></use><use x="26" y="23" href="#template" xlink:href="#template"></use><use x="26" y="24" href="#template" xlink:href="#template"></use><use x="26" y="25" href="#template" xlink:href="#template"></use><use x="26" y="30" href="#template" xlink:href="#template"></use><use x="26" y="33" href="#template" xlink:href="#template"></use><use x="26" y="34" href="#template" xlink:href="#template"></use><use x="26" y="35" href="#template" xlink:href="#template"></use><use x="26" y="36" href="#template" xlink:href="#template"></use><use x="27" y="1" href="#template" xlink:href="#template"></use><use x="27" y="2" href="#template" xlink:href="#template"></use><use x="27" y="3" href="#template" xlink:href="#template"></use><use x="27" y="7" href="#template" xlink:href="#template"></use><use x="27" y="8" href="#template" xlink:href="#template"></use><use x="27" y="9" href="#template" xlink:href="#template"></use><use x="27" y="10" href="#template" xlink:href="#template"></use><use x="27" y="15" href="#template" xlink:href="#template"></use><use x="27" y="18" href="#template" xlink:href="#template"></use><use x="27" y="20" href="#template" xlink:href="#template"></use><use x="27" y="24" href="#template" xlink:href="#template"></use><use x="27" y="25" href="#template" xlink:href="#template"></use><use x="27" y="26" href="#template" xlink:href="#template"></use><use x="27" y="27" href="#template" xlink:href="#template"></use><use x="27" y="30" href="#template" xlink:href="#template"></use><use x="27" y="32" href="#template" xlink:href="#template"></use><use x="27" y="33" href="#template" xlink:href="#template"></use><use x="28" y="0" href="#template" xlink:href="#template"></use><use x="28" y="4" href="#template" xlink:href="#template"></use><use x="28" y="5" href="#template" xlink:href="#template"></use><use x="28" y="6" href="#template" xlink:href="#template"></use><use x="28" y="7" href="#template" xlink:href="#template"></use><use x="28" y="8" href="#template" xlink:href="#template"></use><use x="28" y="9" href="#template" xlink:href="#template"></use><use x="28" y="11" href="#template" xlink:href="#template"></use><use x="28" y="12" href="#template" xlink:href="#template"></use><use x="28" y="14" href="#template" xlink:href="#template"></use><use x="28" y="15" href="#template" xlink:href="#template"></use><use x="28" y="17" href="#template" xlink:href="#template"></use><use x="28" y="18" href="#template" xlink:href="#template"></use><use x="28" y="19" href="#template" xlink:href="#template"></use><use x="28" y="21" href="#template" xlink:href="#template"></use><use x="28" y="23" href="#template" xlink:href="#template"></use><use x="28" y="24" href="#template" xlink:href="#template"></use><use x="28" y="25" href="#template" xlink:href="#template"></use><use x="28" y="28" href="#template" xlink:href="#template"></use><use x="28" y="29" href="#template" xlink:href="#template"></use><use x="28" y="30" href="#template" xlink:href="#template"></use><use x="28" y="31" href="#template" xlink:href="#template"></use><use x="28" y="32" href="#template" xlink:href="#template"></use><use x="28" y="33" href="#template" xlink:href="#template"></use><use x="28" y="34" href="#template" xlink:href="#template"></use><use x="28" y="36" href="#template" xlink:href="#template"></use><use x="29" y="8" href="#template" xlink:href="#template"></use><use x="29" y="12" href="#template" xlink:href="#template"></use><use x="29" y="17" href="#template" xlink:href="#template"></use><use x="29" y="21" href="#template" xlink:href="#template"></use><use x="29" y="25" href="#template" xlink:href="#template"></use><use x="29" y="26" href="#template" xlink:href="#template"></use><use x="29" y="27" href="#template" xlink:href="#template"></use><use x="29" y="28" href="#template" xlink:href="#template"></use><use x="29" y="32" href="#template" xlink:href="#template"></use><use x="29" y="36" href="#template" xlink:href="#template"></use><use x="30" y="0" href="#template" xlink:href="#template"></use><use x="30" y="1" href="#template" xlink:href="#template"></use><use x="30" y="2" href="#template" xlink:href="#template"></use><use x="30" y="3" href="#template" xlink:href="#template"></use><use x="30" y="4" href="#template" xlink:href="#template"></use><use x="30" y="5" href="#template" xlink:href="#template"></use><use x="30" y="6" href="#template" xlink:href="#template"></use><use x="30" y="9" href="#template" xlink:href="#template"></use><use x="30" y="10" href="#template" xlink:href="#template"></use><use x="30" y="11" href="#template" xlink:href="#template"></use><use x="30" y="12" href="#template" xlink:href="#template"></use><use x="30" y="13" href="#template" xlink:href="#template"></use><use x="30" y="15" href="#template" xlink:href="#template"></use><use x="30" y="18" href="#template" xlink:href="#template"></use><use x="30" y="19" href="#template" xlink:href="#template"></use><use x="30" y="20" href="#template" xlink:href="#template"></use><use x="30" y="25" href="#template" xlink:href="#template"></use><use x="30" y="26" href="#template" xlink:href="#template"></use><use x="30" y="27" href="#template" xlink:href="#template"></use><use x="30" y="28" href="#template" xlink:href="#template"></use><use x="30" y="30" href="#template" xlink:href="#template"></use><use x="30" y="32" href="#template" xlink:href="#template"></use><use x="30" y="34" href="#template" xlink:href="#template"></use><use x="30" y="35" href="#template" xlink:href="#template"></use><use x="30" y="36" href="#template" xlink:href="#template"></use><use x="31" y="0" href="#template" xlink:href="#template"></use><use x="31" y="6" href="#template" xlink:href="#template"></use><use x="31" y="8" href="#template" xlink:href="#template"></use><use x="31" y="9" href="#template" xlink:href="#template"></use><use x="31" y="10" href="#template" xlink:href="#template"></use><use x="31" y="13" href="#template" xlink:href="#template"></use><use x="31" y="15" href="#template" xlink:href="#template"></use><use x="31" y="19" href="#template" xlink:href="#template"></use><use x="31" y="20" href="#template" xlink:href="#template"></use><use x="31" y="21" href="#template" xlink:href="#template"></use><use x="31" y="23" href="#template" xlink:href="#template"></use><use x="31" y="24" href="#template" xlink:href="#template"></use><use x="31" y="25" href="#template" xlink:href="#template"></use><use x="31" y="28" href="#template" xlink:href="#template"></use><use x="31" y="32" href="#template" xlink:href="#template"></use><use x="31" y="36" href="#template" xlink:href="#template"></use><use x="32" y="0" href="#template" xlink:href="#template"></use><use x="32" y="2" href="#template" xlink:href="#template"></use><use x="32" y="3" href="#template" xlink:href="#template"></use><use x="32" y="4" href="#template" xlink:href="#template"></use><use x="32" y="6" href="#template" xlink:href="#template"></use><use x="32" y="8" href="#template" xlink:href="#template"></use><use x="32" y="9" href="#template" xlink:href="#template"></use><use x="32" y="10" href="#template" xlink:href="#template"></use><use x="32" y="12" href="#template" xlink:href="#template"></use><use x="32" y="14" href="#template" xlink:href="#template"></use><use x="32" y="15" href="#template" xlink:href="#template"></use><use x="32" y="17" href="#template" xlink:href="#template"></use><use x="32" y="19" href="#template" xlink:href="#template"></use><use x="32" y="23" href="#template" xlink:href="#template"></use><use x="32" y="25" href="#template" xlink:href="#template"></use><use x="32" y="28" href="#template" xlink:href="#template"></use><use x="32" y="29" href="#template" xlink:href="#template"></use><use x="32" y="30" href="#template" xlink:href="#template"></use><use x="32" y="31" href="#template" xlink:href="#template"></use><use x="32" y="32" href="#template" xlink:href="#template"></use><use x="32" y="33" href="#template" xlink:href="#template"></use><use x="32" y="35" href="#template" xlink:href="#template"></use><use x="32" y="36" href="#template" xlink:href="#template"></use><use x="33" y="0" href="#template" xlink:href="#template"></use><use x="33" y="2" href="#template" xlink:href="#template"></use><use x="33" y="3" href="#template" xlink:href="#template"></use><use x="33" y="4" href="#template" xlink:href="#template"></use><use x="33" y="6" href="#template" xlink:href="#template"></use><use x="33" y="9" href="#template" xlink:href="#template"></use><use x="33" y="10" href="#template" xlink:href="#template"></use><use x="33" y="11" href="#template" xlink:href="#template"></use><use x="33" y="12" href="#template" xlink:href="#template"></use><use x="33" y="14" href="#template" xlink:href="#template"></use><use x="33" y="16" href="#template" xlink:href="#template"></use><use x="33" y="17" href="#template" xlink:href="#template"></use><use x="33" y="19" href="#template" xlink:href="#template"></use><use x="33" y="20" href="#template" xlink:href="#template"></use><use x="33" y="21" href="#template" xlink:href="#template"></use><use x="33" y="22" href="#template" xlink:href="#template"></use><use x="33" y="23" href="#template" xlink:href="#template"></use><use x="33" y="29" href="#template" xlink:href="#template"></use><use x="33" y="32" href="#template" xlink:href="#template"></use><use x="33" y="35" href="#template" xlink:href="#template"></use><use x="33" y="36" href="#template" xlink:href="#template"></use><use x="34" y="0" href="#template" xlink:href="#template"></use><use x="34" y="2" href="#template" xlink:href="#template"></use><use x="34" y="3" href="#template" xlink:href="#template"></use><use x="34" y="4" href="#template" xlink:href="#template"></use><use x="34" y="6" href="#template" xlink:href="#template"></use><use x="34" y="8" href="#template" xlink:href="#template"></use><use x="34" y="11" href="#template" xlink:href="#template"></use><use x="34" y="13" href="#template" xlink:href="#template"></use><use x="34" y="14" href="#template" xlink:href="#template"></use><use x="34" y="17" href="#template" xlink:href="#template"></use><use x="34" y="22" href="#template" xlink:href="#template"></use><use x="34" y="25" href="#template" xlink:href="#template"></use><use x="34" y="29" href="#template" xlink:href="#template"></use><use x="34" y="31" href="#template" xlink:href="#template"></use><use x="34" y="32" href="#template" xlink:href="#template"></use><use x="34" y="36" href="#template" xlink:href="#template"></use><use x="35" y="0" href="#template" xlink:href="#template"></use><use x="35" y="6" href="#template" xlink:href="#template"></use><use x="35" y="11" href="#template" xlink:href="#template"></use><use x="35" y="12" href="#template" xlink:href="#template"></use><use x="35" y="13" href="#template" xlink:href="#template"></use><use x="35" y="15" href="#template" xlink:href="#template"></use><use x="35" y="16" href="#template" xlink:href="#template"></use><use x="35" y="22" href="#template" xlink:href="#template"></use><use x="35" y="23" href="#template" xlink:href="#template"></use><use x="35" y="25" href="#template" xlink:href="#template"></use><use x="35" y="26" href="#template" xlink:href="#template"></use><use x="35" y="28" href="#template" xlink:href="#template"></use><use x="35" y="35" href="#template" xlink:href="#template"></use><use x="36" y="0" href="#template" xlink:href="#template"></use><use x="36" y="1" href="#template" xlink:href="#template"></use><use x="36" y="2" href="#template" xlink:href="#template"></use><use x="36" y="3" href="#template" xlink:href="#template"></use><use x="36" y="4" href="#template" xlink:href="#template"></use><use x="36" y="5" href="#template" xlink:href="#template"></use><use x="36" y="6" href="#template" xlink:href="#template"></use><use x="36" y="10" href="#template" xlink:href="#template"></use><use x="36" y="14" href="#template" xlink:href="#template"></use><use x="36" y="15" href="#template" xlink:href="#template"></use><use x="36" y="19" href="#template" xlink:href="#template"></use><use x="36" y="20" href="#template" xlink:href="#template"></use><use x="36" y="24" href="#template" xlink:href="#template"></use><use x="36" y="25" href="#template" xlink:href="#template"></use><use x="36" y="27" href="#template" xlink:href="#template"></use><use x="36" y="28" href="#template" xlink:href="#template"></use><use x="36" y="29" href="#template" xlink:href="#template"></use><use x="36" y="31" href="#template" xlink:href="#template"></use><use x="36" y="35" href="#template" xlink:href="#template"></use><use x="36" y="36" href="#template" xlink:href="#template"></use></svg>
